<?xml version="1.0" encoding="utf-8"?>
<!-- Generator: Adobe Illustrator 27.9.0, SVG Export Plug-In . SVG Version: 6.00 Build 0)  -->
<svg version="1.1" id="Layer_1" xmlns="http://www.w3.org/2000/svg" xmlns:xlink="http://www.w3.org/1999/xlink" x="0px" y="0px"
	 viewBox="0 0 36.1 39.1" style="enable-background:new 0 0 36.1 39.1;" xml:space="preserve">
<style type="text/css">
	.st0{fill:#FF9500;}
</style>
<g>
	<path d="M35.8,0.1c-4.2,3.8-7.7,7-11.1,10.1c-3.8,3.4-7.6,7-12.4,11.3l-0.2,0.2L12,21.7c-0.5-0.1-1.1-0.3-1.6-0.3
		c-3-0.4-5.8,0.3-7.6,2c-1.4,1.3-2.2,3.2-2.3,5.5c1.1-0.7,2.2-1,3.3-0.9c1.6,0.2,3,1.3,4.4,2.4c1.6,1.3,3.3,2.6,5.4,2.9
		c1.5,0.2,3.1-0.1,4.8-1L17,30.8c-1,0.5-2.1,0.7-3.1,0.5l0,0c-1.8-0.3-3.3-1.5-4.8-2.6c-1.5-1.2-2.8-2.2-4.4-2.5
		c-0.4-0.1-0.7-0.1-1.1,0l-1,0.1l0.6-0.8c1.9-2.5,4.1-2.6,6-2.3c0.4,0.1,0.8,0.1,1.1,0.2c0.3,0.1,0.7,0.1,1,0.2l0,0
		c0.9,0.1,1.4,0.1,1.8-0.2c3.5-3.3,7.1-6.5,10.5-9.7c2.2-2,4.4-4,6.6-6.1c1.5-1.4,2.2-1.9,2.8-2.5c0.7-0.7,1.2-1.2,1.8-1.7
		c0.7-0.7,1-1.2,1-1.7S35.8,0.5,35.8,0.1L35.8,0.1z"/>
	<path d="M29.1,23.1c2.1-1.9,2-2,1.9-4c0-0.1,0-0.3,0-0.4c-1.3,1.2-2.4,2.3-3.5,3.3c-2,1.9-3.7,3.6-6.3,5.8l1.4,1.3
		C24.7,27.2,29.1,23.1,29.1,23.1z"/>
	<path class="st0" d="M33.6,8.8c-5.4,5-8,7.2-13.5,12.1c-4.6,4.8-8,4.5-3.1,8.5c0.2,0.2,0.6,0.5,0.6,0.5s5.1,4.5,6.3,5.6
		c0.9,0.8,1.8,1.6,2.7,2.4c0.3,0.3,1.1,1,2.3,1c0.8,0,1.8,0,2.2,0c0.2,0,0.5,0,0.7,0C28.8,36.2,18.5,27,18,26.5
		c0.6-0.5,1.1-1,1.7-1.6c4.2-3.8,8.3-7.6,12.5-11.4c0.6-0.5,1-1,1.2-1.8C33.7,10.8,33.6,9.5,33.6,8.8L33.6,8.8z"/>
</g>
</svg>
